<?xml version="1.0" encoding="utf-8"?>
<svg version="1.1" xmlns="http://www.w3.org/2000/svg" xmlns:xlink="http://www.w3.org/1999/xlink" x="0px" y="0px"
	 width="350px" height="350px" viewBox="312.14 0 350 350" enable-background="new 312.14 0 350 350" xml:space="preserve">
<g transform="matrix(1.3333 0 0 -1.3333 -76.311 313.34)">
	<g transform="translate(178.06 235.01)">
		<path fill="#F7DF1E" d="M167.069-23.345l77.469-134.18l77.47,134.18H167.069z"/>
	</g>
	<polygon fill="#1B1F23" points="500.069,196.144 422.599,61.963 345.129,196.144 293.483,196.144 422.599,-27.496 551.716,196.144 
			"/>
	<path fill="#1B1F23" d="M416.611,170.052c1.332-2.175,3.065-3.774,6.131-3.774c2.575,0,4.22,1.287,4.22,3.065
		c0,2.131-1.69,2.886-4.525,4.125l-1.553,0.666c-4.485,1.91-7.464,4.304-7.464,9.364c0,4.661,3.551,8.209,9.101,8.209
		c3.952,0,6.793-1.375,8.839-4.976l-4.84-3.107c-1.065,1.911-2.214,2.663-3.999,2.663c-1.821,0-2.974-1.155-2.974-2.663
		c0-1.864,1.154-2.619,3.82-3.774l1.554-0.665c5.28-2.265,8.261-4.573,8.261-9.763c0-5.595-4.395-8.66-10.298-8.66
		c-5.772,0-9.5,2.75-11.325,6.355C411.56,167.117,416.611,170.052,416.611,170.052L416.611,170.052z M439.029,170.052
		c1.332-2.175,3.065-3.774,6.13-3.774c2.575,0,4.22,1.287,4.22,3.065c0,2.131-1.69,2.886-4.524,4.125l-1.553,0.666
		c-4.485,1.91-7.463,4.304-7.463,9.364c0,4.661,3.55,8.209,9.101,8.209c3.952,0,6.792-1.375,8.838-4.976l-4.839-3.107
		c-1.066,1.911-2.215,2.663-3.999,2.663c-1.821,0-2.974-1.155-2.974-2.663c0-1.864,1.155-2.619,3.821-3.774l1.553-0.665
		c5.28-2.264,8.261-4.572,8.261-9.762c0-5.595-4.395-8.66-10.299-8.66c-5.771,0-9.5,2.75-11.324,6.355L439.029,170.052
		L439.029,170.052z M394.658,169.513c0.976-1.733,1.865-3.197,4-3.197c2.041,0,3.329,0.799,3.329,3.905v21.132h6.214v-21.215
		c0-6.434-3.772-9.364-9.28-9.364c-4.976,0-7.857,2.575-9.322,5.677L394.658,169.513
		C394.658,169.513,394.658,169.513,394.658,169.513L394.658,169.513z"/>
	<path fill="#1B1F23" d="M525.895,30.572H319.303v204.44h206.592V30.572z M323.183,34.434h198.83v196.714h-198.83V34.434z"/>
</g>
</svg>
